<?xml version="1.0" encoding="iso-8859-1"?>
<!-- Generator: Adobe Illustrator 16.0.0, SVG Export Plug-In . SVG Version: 6.00 Build 0)  -->
<!DOCTYPE svg PUBLIC "-//W3C//DTD SVG 1.1//EN" "http://www.w3.org/Graphics/SVG/1.1/DTD/svg11.dtd">
<svg version="1.1" id="Capa_1" xmlns="http://www.w3.org/2000/svg" xmlns:xlink="http://www.w3.org/1999/xlink" x="0px" y="0px"
	 width="516.375px" height="516.375px" viewBox="0 0 516.375 516.375" style="enable-background:new 0 0 516.375 516.375;"
	 xml:space="preserve">
<g>
	<path d="M431.454,191.25c-11.475,0-21.037,3.825-28.688,9.562l0,0c0-26.775-21.037-47.812-47.812-47.812
		c-11.475,0-22.951,3.825-32.514,11.475c-7.648-19.125-24.861-30.6-43.986-30.6c-11.475,0-21.038,3.825-28.688,9.562V47.812
		C249.766,21.038,228.729,0,201.954,0s-47.812,21.038-47.812,47.812v170.212c-38.25-34.425-80.325-61.2-107.1-34.425
		c-38.25,38.25,42.075,112.837,103.275,225.675c43.988,78.412,105.188,107.1,166.388,107.1c89.887,0,162.562-72.675,162.562-162.562
		v-114.75C479.267,212.288,458.229,191.25,431.454,191.25z M460.142,281.138v72.675c0,74.588-65.025,143.438-143.438,143.438
		c-72.675,0-114.75-40.162-149.175-95.625C92.941,275.4,39.391,218.025,60.429,196.987c21.038-21.037,72.675,24.863,112.837,66.938
		V47.812c0-15.3,13.388-28.688,28.688-28.688s28.688,13.388,28.688,28.688v200.812h19.125v-66.938
		c0-15.3,13.387-28.688,28.688-28.688c15.299,0,28.688,13.388,28.688,28.688V229.5h19.125v-28.688
		c0-15.3,13.387-28.688,28.688-28.688c15.299,0,28.688,13.388,28.688,28.688v47.812h19.125v-9.562
		c0-15.3,13.387-28.688,28.688-28.688c15.299,0,28.688,13.388,28.688,28.688V281.138z"/>
</g>
<g>
</g>
<g>
</g>
<g>
</g>
<g>
</g>
<g>
</g>
<g>
</g>
<g>
</g>
<g>
</g>
<g>
</g>
<g>
</g>
<g>
</g>
<g>
</g>
<g>
</g>
<g>
</g>
<g>
</g>
</svg>
